<?xml version="1.0" encoding="UTF-8" standalone="no"?>
<!-- Created with Inkscape (http://www.inkscape.org/) -->

<svg
   xmlns:dc="http://purl.org/dc/elements/1.1/"
   xmlns:cc="http://creativecommons.org/ns#"
   xmlns:rdf="http://www.w3.org/1999/02/22-rdf-syntax-ns#"
   xmlns:svg="http://www.w3.org/2000/svg"
   xmlns="http://www.w3.org/2000/svg"
   xmlns:xlink="http://www.w3.org/1999/xlink"
   xmlns:sodipodi="http://sodipodi.sourceforge.net/DTD/sodipodi-0.dtd"
   xmlns:inkscape="http://www.inkscape.org/namespaces/inkscape"
   width="1052.3622"
   height="744.09448"
   id="svg2"
   version="1.1"
   inkscape:version="0.48.2 r9819"
   sodipodi:docname="lunchinator.svg">
  <defs
     id="defs4">
    <inkscape:perspective
       id="perspective7"
       inkscape:persp3d-origin="250 : 166.66667 : 1"
       inkscape:vp_z="500 : 250 : 1"
       inkscape:vp_y="0 : 1000 : 0"
       inkscape:vp_x="0 : 250 : 1"
       sodipodi:type="inkscape:persp3d" />
  </defs>
  <sodipodi:namedview
     id="base"
     pagecolor="#ffffff"
     bordercolor="#666666"
     borderopacity="1.0"
     inkscape:pageopacity="0.0"
     inkscape:pageshadow="2"
     inkscape:zoom="0.56491958"
     inkscape:cx="409.3503"
     inkscape:cy="383.11657"
     inkscape:document-units="px"
     inkscape:current-layer="layer1"
     showgrid="false"
     inkscape:window-width="1280"
     inkscape:window-height="748"
     inkscape:window-x="-8"
     inkscape:window-y="-8"
     inkscape:window-maximized="1" />
  <metadata
     id="metadata7">
    <rdf:RDF>
      <cc:Work
         rdf:about="">
        <dc:format>image/svg+xml</dc:format>
        <dc:type
           rdf:resource="http://purl.org/dc/dcmitype/StillImage" />
        <dc:title></dc:title>
      </cc:Work>
    </rdf:RDF>
  </metadata>
  <g
     inkscape:label="Ebene 1"
     inkscape:groupmode="layer"
     id="layer1"
     transform="translate(0,-308.2677)">
    <rect
       style="fill:#d2e444;fill-opacity:1;stroke:none"
       id="rect3015"
       width="1051.4286"
       height="1910.2856"
       x="1.4285709"
       y="309.50504" />
    <rect
       y="436.64786"
       x="28.593365"
       height="1704.8572"
       width="991.40668"
       id="rect3696"
       style="fill:#fff7e1;fill-opacity:1;stroke:none" />
    <text
       xml:space="preserve"
       style="font-size:55.23991394px;font-style:normal;font-variant:normal;font-weight:normal;font-stretch:normal;text-align:end;line-height:110.00000238%;writing-mode:lr-tb;text-anchor:end;fill:#df382c;fill-opacity:1;stroke:none;font-family:Steelfish;-inkscape-font-specification:Steelfish"
       x="116.14138"
       y="602.48358"
       id="text2985"
       sodipodi:linespacing="110%"><tspan
         sodipodi:role="line"
         id="tspan2987"
         x="116.14138"
         y="602.48358"
         style="font-style:normal;font-variant:normal;font-weight:normal;font-stretch:normal;text-align:start;text-anchor:start;font-family:FARRAY;-inkscape-font-specification:FARRAY">Lunchinator</tspan></text>
    <text
       xml:space="preserve"
       style="font-size:19.06920052px;font-style:normal;font-variant:normal;font-weight:normal;font-stretch:normal;text-align:start;line-height:110.00000238%;writing-mode:lr-tb;text-anchor:start;fill:#df382c;fill-opacity:1;stroke:none;font-family:Trebuchet MS;-inkscape-font-specification:Trebuchet MS"
       x="340.38217"
       y="377.04291"
       id="text2989"
       sodipodi:linespacing="110%"><tspan
         sodipodi:role="line"
         id="tspan2991"
         x="340.38217"
         y="377.04291">Details</tspan></text>
    <text
       xml:space="preserve"
       style="font-size:19.06920052px;font-style:normal;font-variant:normal;font-weight:normal;font-stretch:normal;text-align:start;line-height:110.00000238%;writing-mode:lr-tb;text-anchor:start;fill:#df382c;fill-opacity:1;stroke:none;font-family:Trebuchet MS;-inkscape-font-specification:Trebuchet MS"
       x="641.02295"
       y="379.77185"
       id="text2997"
       sodipodi:linespacing="110%"><tspan
         sodipodi:role="line"
         id="tspan2999"
         x="641.02295"
         y="379.77185">Features</tspan></text>
    <path
       style="fill:#df382c;fill-opacity:1;fill-rule:evenodd"
       inkscape:connector-curvature="0"
       id="path3"
       d="m 794.54971,613.60669 c -15.10789,15.10846 -11.58667,34.7561 -16.64099,53.89644 L 693.1847,581.96116 c -1.83926,-1.94375 -4.49367,-3.16506 -7.40255,-3.16506 -5.61498,0 -10.20751,4.54086 -10.20751,10.20751 v 3.46955 c 0,30.7787 13.27088,87.74021 54.71607,133.3684 l -48.79437,48.74718 c -7.91322,7.90534 -7.91322,20.76951 0,28.6799 7.90984,7.91659 20.77287,7.91659 28.63271,0 l 48.63988,-48.69212 29.09507,29.09448 25.11036,-22.81492 42.41761,42.41256 c 7.85536,7.91659 20.72007,7.91659 28.62936,0 7.91657,-7.91039 7.91657,-20.774 0,-28.6799 L 816.9023,706.9057 c 19.34877,-5.30824 39.14809,-1.57973 54.25936,-16.69324 l 45.62819,-45.62707 c 5.05545,-5.00488 5.05545,-13.16864 0,-18.21846 -5.05431,-5.05826 -13.21752,-5.05826 -18.22297,0 l -40.16321,40.11489 c -3.01113,3.01001 -7.91658,3.01001 -10.92546,0 -3.06057,-3.01 -3.06057,-7.90984 0,-10.91984 l 40.11827,-40.1694 c 5.05039,-5.00488 5.05039,-13.16864 0,-18.22297 -5.0532,-5.04925 -13.21864,-5.04925 -18.2179,0 l -40.17389,40.11941 c -3.01113,3.06056 -7.90984,3.06056 -10.92154,0 -3.00888,-3.01001 -3.00888,-7.91546 0,-10.92154 l 40.12052,-40.16939 c 5.05263,-5.00375 5.05263,-13.1692 0,-18.22295 -5.05488,-5.05377 -13.21752,-5.05377 -18.22352,0 l -45.63044,45.63155 z"
       clip-rule="evenodd" />
    <flowRoot
       xml:space="preserve"
       id="flowRoot3702"
       style="font-size:16px;font-style:normal;font-variant:normal;font-weight:normal;font-stretch:normal;text-align:start;line-height:110%;writing-mode:lr;text-anchor:start;fill:#df382c;fill-opacity:1;stroke:none;font-family:Trebuchet MS;-inkscape-font-specification:Trebuchet MS"
       transform="translate(8.2379102,308.2677)"><flowRegion
         id="flowRegion3704"><rect
           id="rect3706"
           width="455.14285"
           height="193.14285"
           x="112.85714"
           y="328.38019"
           style="fill:#df382c;fill-opacity:1;-inkscape-font-specification:Trebuchet MS;font-family:Trebuchet MS;font-weight:normal;font-style:normal;font-stretch:normal;font-variant:normal;font-size:16px;text-anchor:start;text-align:start;writing-mode:lr;line-height:110%" /></flowRegion><flowPara
         id="flowPara3708"
         style="font-size:16px;-inkscape-font-specification:Trebuchet MS;font-family:Trebuchet MS;font-weight:normal;font-style:normal;font-stretch:normal;font-variant:normal;text-anchor:start;text-align:start;writing-mode:lr;line-height:110%">A lightweight tool that will help you get everyone to lunch - in nearly no time at all. No more excruciating waiting at your colleagues doors. Just click and go. </flowPara><flowPara
         style="font-size:16px;-inkscape-font-specification:Trebuchet MS;font-family:Trebuchet MS;font-weight:normal;font-style:normal;font-stretch:normal;font-variant:normal;text-anchor:start;text-align:start;writing-mode:lr;line-height:110%"
         id="flowPara3044" /><flowPara
         style="font-size:16px;-inkscape-font-specification:Trebuchet MS;font-family:Trebuchet MS;font-weight:normal;font-style:normal;font-stretch:normal;font-variant:normal;text-anchor:start;text-align:start;writing-mode:lr;line-height:110%"
         id="flowPara3046"></flowPara><flowPara
         style="font-size:16px;-inkscape-font-specification:Trebuchet MS;font-family:Trebuchet MS;font-weight:normal;font-style:normal;font-stretch:normal;font-variant:normal;text-anchor:start;text-align:start;writing-mode:lr;line-height:110%"
         id="flowPara3765" /><flowPara
         style="font-size:16px;-inkscape-font-specification:Trebuchet MS;font-family:Trebuchet MS;font-weight:normal;font-style:normal;font-stretch:normal;font-variant:normal;text-anchor:start;text-align:start;writing-mode:lr;line-height:110%"
         id="flowPara3727">Download the installers or follow instructions on how to use the Linux packages. </flowPara></flowRoot>    <g
       id="g3712"
       transform="translate(-18.017958,8)">
      <path
         style="fill:#df382c;fill-opacity:1;fill-rule:evenodd"
         inkscape:connector-curvature="0"
         id="path3700"
         d="m 545.08157,349.06406 c -2.71432,2.71442 -2.08168,6.24435 -2.98976,9.68315 l -15.2217,-15.36866 c -0.33044,-0.34922 -0.80734,-0.56864 -1.32996,-0.56864 -1.00879,0 -1.8339,0.81582 -1.8339,1.8339 v 0.62335 c 0,5.52977 2.38428,15.7636 9.83041,23.96126 l -8.7665,8.75802 c -1.42171,1.42029 -1.42171,3.7315 0,5.1527 1.42109,1.42231 3.7321,1.42231 5.14421,0 l 8.73875,-8.74814 5.22728,5.22718 4.51138,-4.09898 7.62084,7.61994 c 1.41131,1.42231 3.72262,1.42231 5.14362,0 1.42231,-1.4212 1.42231,-3.73231 0,-5.1527 l -12.05875,-12.16008 c 3.47624,-0.95369 7.03343,-0.28382 9.74835,-2.99914 l 8.19766,-8.19746 c 0.90827,-0.89919 0.90827,-2.36591 0,-3.27317 -0.90807,-0.90878 -2.37469,-0.90878 -3.27398,0 l -7.21581,7.20713 c -0.54098,0.54078 -1.42231,0.54078 -1.96289,0 -0.54987,-0.54079 -0.54987,-1.4211 0,-1.96188 l 7.20774,-7.21693 c 0.90736,-0.89918 0.90736,-2.3659 0,-3.27397 -0.90787,-0.90716 -2.37489,-0.90716 -3.27307,0 l -7.21773,7.20794 c -0.54099,0.54986 -1.4211,0.54986 -1.96219,0 -0.54058,-0.54079 -0.54058,-1.42211 0,-1.96219 l 7.20814,-7.21692 c 0.90777,-0.89899 0.90777,-2.36601 0,-3.27398 -0.90817,-0.90797 -2.37469,-0.90797 -3.27407,0 l -8.19807,8.19827 z"
         clip-rule="evenodd" />
      <path
         transform="matrix(0.26368158,0,0,0.26368158,336.45564,273.28745)"
         d="m 931.42854,339.09448 c 0,79.29231 -64.27911,143.57143 -143.57142,143.57143 -79.29231,0 -143.57143,-64.27912 -143.57143,-143.57143 0,-79.29231 64.27912,-143.57142 143.57143,-143.57142 79.29231,0 143.57142,64.27911 143.57142,143.57142 z"
         sodipodi:ry="143.57143"
         sodipodi:rx="143.57143"
         sodipodi:cy="339.09448"
         sodipodi:cx="787.85712"
         id="path3710"
         style="fill:none;stroke:#df382c;stroke-width:7.5849061"
         sodipodi:type="arc" />
    </g>
    <path
       style="fill:#ffffff;fill-opacity:1;stroke:#df382c;stroke-width:2;stroke-linecap:round;stroke-linejoin:round;stroke-miterlimit:4;stroke-opacity:1;stroke-dasharray:none;stroke-dashoffset:0"
       d="m 199.38101,908.36218 601.23797,0"
       id="path3718"
       inkscape:connector-curvature="0" />
    <image
       y="326.80731"
       x="-853.05139"
       id="image3913"
       xlink:href="file:///C:/Users/katha/AppData/Local/Temp/inkscape-clipboard-import"
       height="450"
       width="600" />
    <rect
       style="fill:#b0b0b0;fill-opacity:1;stroke:none"
       id="rect3731"
       width="130"
       height="40"
       x="121.11291"
       y="804.57324"
       rx="0"
       ry="0" />
    <path
       style="fill:#ffffff"
       d="m 133.7445,836.97407 c -0.46872,-0.33838 -0.97046,-0.84979 -1.49084,-1.51957 -0.25985,-0.33446 -0.69597,-0.94203 -0.96217,-1.34045 -0.83907,-1.25575 -1.55671,-2.83292 -2.01689,-4.43255 -1.01006,-3.5111 -0.74599,-6.69818 0.73769,-8.90319 0.9005,-1.33829 2.24381,-2.29549 3.75274,-2.67404 0.52528,-0.13179 0.98456,-0.18447 1.51551,-0.17386 0.37181,0.007 0.61248,0.0394 0.98894,0.13168 0.44069,0.10794 0.71143,0.20207 1.74736,0.60751 0.73264,0.28675 1.07455,0.37892 1.40613,0.37907 0.30949,0 0.61951,-0.0838 1.32816,-0.35988 0.9101,-0.35448 1.08815,-0.42063 1.39919,-0.51992 0.50285,-0.16049 0.95585,-0.26051 1.39385,-0.3077 0.26456,-0.0285 0.8586,-0.0146 1.255,0.0293 1.11295,0.12331 2.19317,0.53864 3.03896,1.16847 0.39034,0.29065 0.76716,0.6561 1.07444,1.042 0.10228,0.12841 0.2337,0.31375 0.2337,0.32949 0,0.008 -0.0444,0.0435 -0.0988,0.0783 -0.38171,0.24426 -0.81281,0.61078 -1.15968,0.98598 -0.86226,0.93268 -1.36996,2.01923 -1.50219,3.21493 -0.0794,0.71739 -0.0147,1.54016 0.17528,2.23284 0.38552,1.40518 1.31436,2.59433 2.64414,3.38517 0.1575,0.0937 0.41705,0.22955 0.54739,0.28658 0.0632,0.0277 0.0774,0.0383 0.0774,0.058 0,0.0286 -0.10001,0.32721 -0.19216,0.57414 -0.33205,0.88926 -0.76504,1.77936 -1.24437,2.55807 -0.23285,0.37826 -0.73888,1.11441 -1.07198,1.55939 -1.04105,1.39078 -1.93219,2.03401 -2.99744,2.1636 -0.13644,0.0166 -0.54002,0.0167 -0.6996,0 -0.48124,-0.0499 -0.82544,-0.15155 -1.51134,-0.44649 -0.91986,-0.39553 -1.3214,-0.50825 -1.99198,-0.55922 -0.20713,-0.0158 -0.70773,-0.007 -0.9115,0.0159 -0.61735,0.0693 -1.00598,0.18479 -1.90823,0.56694 -0.74653,0.31621 -1.14619,0.42618 -1.68758,0.46432 -0.68097,0.0451 -1.4063,-0.2668 -1.86914,-0.59478 z m 5.57078,-19.40864 c -0.10187,-0.008 -0.0947,0.006 -0.11352,-0.22862 -0.0155,-0.19365 -0.008,-0.54823 0.0162,-0.75001 0.0684,-0.57409 0.23882,-1.13671 0.51821,-1.71019 0.43138,-0.88549 0.99853,-1.58496 1.73285,-2.13714 0.83155,-0.6253 1.79218,-1.03274 2.70054,-1.1454 0.21103,-0.0261 0.25149,-0.0272 0.25938,-0.006 0.0166,0.0434 0.0309,0.39659 0.025,0.62024 -0.0323,1.22655 -0.51754,2.46242 -1.38397,3.52461 -0.13624,0.16701 -0.48287,0.51679 -0.65259,0.65852 -0.78843,0.65835 -1.66827,1.05951 -2.53671,1.15658 -0.16464,0.0185 -0.44656,0.0274 -0.56536,0.0181 z"
       id="path3761"
       inkscape:connector-curvature="0"
       sodipodi:nodetypes="csssssssssssssssssssssscsssscssssccsssssscsssss" />
    <text
       xml:space="preserve"
       style="font-size:16px;font-style:normal;font-variant:normal;font-weight:normal;font-stretch:normal;text-align:start;line-height:110.00000238%;writing-mode:lr-tb;text-anchor:start;fill:#ffffff;fill-opacity:1;stroke:none;font-family:Trebuchet MS;-inkscape-font-specification:Trebuchet MS"
       x="167.56013"
       y="829.724"
       id="text3763"
       sodipodi:linespacing="110%"><tspan
         sodipodi:role="line"
         id="tspan3765"
         x="167.56013"
         y="829.724">Mac OS</tspan></text>
    <rect
       ry="0"
       rx="0"
       y="804.57324"
       x="266.4754"
       height="40"
       width="130"
       id="rect3767"
       style="fill:#1570a6;fill-opacity:1;stroke:none" />
    <rect
       style="fill:#dd4814;fill-opacity:1;stroke:none"
       id="rect3769"
       width="130"
       height="40"
       x="412.18103"
       y="804.57324"
       rx="0"
       ry="0" />
    <g
       id="g3792"
       transform="matrix(0.76305245,0,0,0.76305245,-68.992909,74.425687)">
      <rect
         transform="translate(0,308.2677)"
         y="657.78326"
         x="451.70865"
         height="16.042484"
         width="16.042484"
         id="rect3784"
         style="fill:#ffffff;fill-opacity:1;stroke:none" />
      <rect
         style="fill:#ffffff;fill-opacity:1;stroke:none"
         id="rect3786"
         width="16.042484"
         height="16.042484"
         x="469.73987"
         y="966.05096" />
      <rect
         y="984.08215"
         x="469.73987"
         height="16.042484"
         width="16.042484"
         id="rect3788"
         style="fill:#ffffff;fill-opacity:1;stroke:none" />
      <rect
         style="fill:#ffffff;fill-opacity:1;stroke:none"
         id="rect3790"
         width="16.042484"
         height="16.042484"
         x="451.70865"
         y="984.08215" />
    </g>
    <text
       sodipodi:linespacing="110%"
       id="text3798"
       y="830.39355"
       x="317.4079"
       style="font-size:16px;font-style:normal;font-variant:normal;font-weight:normal;font-stretch:normal;text-align:start;line-height:110.00000238%;writing-mode:lr-tb;text-anchor:start;fill:#ffffff;fill-opacity:1;stroke:none;font-family:Trebuchet MS;-inkscape-font-specification:Trebuchet MS"
       xml:space="preserve"><tspan
         y="830.39355"
         x="317.4079"
         id="tspan3800"
         sodipodi:role="line">Windows</tspan></text>
    <path
       style="fill:#ffffff;fill-opacity:1;stroke:none"
       d="m 432.81015,811.57324 c -0.95046,0 -3.67182,0.28038 -3.91967,3.53733 -0.16391,2.15377 0.54316,4.43987 -0.78549,6.1175 -2.30076,2.90506 -3.19459,4.96062 -3.4619,6.14871 -0.16495,0.73308 -0.0312,1.84149 -0.0312,1.84149 -0.44553,0.29701 -0.47371,0.82962 -0.88953,1.18604 -0.41584,0.35643 -1.40478,0.2345 -1.84149,1.01178 -0.29806,0.53051 0.10743,1.42476 0.0598,1.90132 -0.0594,0.59404 -0.58954,1.83535 -0.11964,2.37469 0.488,0.56015 1.87166,0.11946 3.38647,0.83231 0.76958,0.36216 2.37642,1.27576 4.09914,0.5332 1.1469,-0.49435 0.77299,-2.2859 0.47598,-2.79085 -0.15358,-0.26107 -0.50684,-0.71257 -1.01178,-1.069 1.00145,0.23438 1.41438,-0.58062 0.83231,-1.89871 -0.3264,-0.73912 -2.45012,-2.3929 -2.45012,-2.3929 -0.24748,-1.26225 0.55026,-3.67458 1.63861,-5.45945 0.47525,-1.00988 1.08682,-3.14029 0.92855,-3.61276 0,0 0.3724,0.20648 0.5358,0.34073 0.28614,0.2351 0.77272,0.78549 1.54498,0.78549 0.77225,0 1.2848,-0.57305 1.64122,-0.69185 0.35643,-0.11881 1.06806,-0.41427 1.30569,-0.83752 0,0 0.50064,1.53053 0.67886,2.06518 0.1782,0.53464 1.54187,3.44308 1.83889,4.09653 0.29702,0.65345 0.71526,2.32008 0.71526,2.32008 0,0 -0.12183,0.12447 -0.41875,0.11704 -0.59404,-0.0149 -0.44217,0.96496 -0.44217,0.96496 0,0 -0.25346,0.11737 -0.78809,0.5332 -0.53465,0.41584 -0.3565,2.74989 -0.56442,3.58155 -0.2255,0.90206 -1.35145,3.32587 0.46038,4.23179 1.59222,0.79611 3.11746,-0.62471 4.06792,-1.70884 0.49845,-0.56854 2.41344,-1.07761 2.6608,-1.70624 0.23136,-0.58796 0.0592,-1.24752 -0.77249,-1.94554 -0.29135,-0.24452 -0.13391,-0.90588 -0.31211,-1.38111 -0.17822,-0.47524 -0.74388,-0.90514 -0.74388,-0.90514 0,0 0.3076,-1.33933 0.0598,-2.94171 -0.44553,-2.8811 -3.53371,-5.67454 -4.12775,-7.04084 -0.59404,-1.36631 0.0301,-3.14705 -0.50459,-5.34501 -0.53463,-2.19796 -2.2306,-2.79345 -3.74541,-2.79345 z m 0.61643,3.59975 c 0.62368,-0.0206 1.26684,0.4313 1.3265,1.3291 0.0805,1.21158 -0.34073,1.50337 -0.34073,1.50337 -0.31327,-0.0389 -0.53593,-0.10282 -0.72307,-0.18207 0.1631,-0.16447 0.2705,-0.45455 0.2705,-0.7855 0,-0.5129 -0.25904,-0.92855 -0.58001,-0.92855 -0.32098,0 -0.58262,0.41565 -0.58262,0.92855 0,0.11471 0.0152,0.22369 0.039,0.32512 -0.15821,-0.0744 -0.34542,-0.14512 -0.58522,-0.20807 0,0 -0.17846,-0.82858 0.20548,-1.43054 0.22767,-0.35697 0.59597,-0.53907 0.97016,-0.55141 z m -3.13157,0.23929 c 0.30994,-0.007 0.61302,0.161 0.76989,0.48378 0.20164,0.41494 0.18727,1.26148 0.18727,1.26148 -0.22069,0.0691 -0.39195,0.15794 -0.5332,0.25229 0.0339,-0.10803 0.0537,-0.23242 0.0494,-0.36414 -0.0131,-0.40366 -0.22569,-0.72387 -0.47338,-0.71526 -0.2477,0.009 -0.43711,0.34281 -0.42396,0.74648 0.012,0.37013 0.19039,0.6694 0.41095,0.71006 -0.13045,0.13257 -0.24219,0.24733 -0.39014,0.30172 0,0 -0.60859,-0.44038 -0.55661,-1.47996 0.0403,-0.80625 0.50674,-1.18688 0.95976,-1.19645 z m 5.18895,18.38111 c -0.92169,0.70581 -3.36771,1.861 -5.56869,0.42656 0.27891,0.77731 0.3722,1.27265 0.20807,1.99755 1.84793,-0.56653 2.98365,-0.47858 5.03549,-0.10925 -0.18263,-0.82482 0.0542,-1.5298 0.32513,-2.31486 z"
       id="path3023"
       inkscape:connector-curvature="0" />
    <text
       xml:space="preserve"
       style="font-size:16px;font-style:normal;font-variant:normal;font-weight:normal;font-stretch:normal;text-align:start;line-height:110.00000238%;writing-mode:lr-tb;text-anchor:start;fill:#ffffff;fill-opacity:1;stroke:none;font-family:Trebuchet MS;-inkscape-font-specification:Trebuchet MS"
       x="457.9079"
       y="830.26074"
       id="text3040"
       sodipodi:linespacing="110%"><tspan
         sodipodi:role="line"
         id="tspan3042"
         x="457.9079"
         y="830.26074">Linux</tspan></text>
    <path
       sodipodi:nodetypes="csssssssssssssssssssssscsssscssssccsssssscsssss"
       inkscape:connector-curvature="0"
       id="path3767"
       d="m -194.2555,914.97407 c -0.46872,-0.33838 -0.97046,-0.84979 -1.49084,-1.51957 -0.25985,-0.33446 -0.69597,-0.94203 -0.96217,-1.34045 -0.83907,-1.25575 -1.55671,-2.83292 -2.01689,-4.43255 -1.01006,-3.5111 -0.74599,-6.69818 0.73769,-8.90319 0.9005,-1.33829 2.24381,-2.29549 3.75274,-2.67404 0.52528,-0.13179 0.98456,-0.18447 1.51551,-0.17386 0.37181,0.007 0.61248,0.0394 0.98894,0.13168 0.44069,0.10794 0.71143,0.20207 1.74736,0.60751 0.73264,0.28675 1.07455,0.37892 1.40613,0.37907 0.30949,0 0.61951,-0.0838 1.32816,-0.35988 0.9101,-0.35448 1.08815,-0.42063 1.39919,-0.51992 0.50285,-0.16049 0.95585,-0.26051 1.39385,-0.3077 0.26456,-0.0285 0.8586,-0.0146 1.255,0.0293 1.11295,0.12331 2.19317,0.53864 3.03896,1.16847 0.39034,0.29065 0.76716,0.6561 1.07444,1.042 0.10228,0.12841 0.2337,0.31375 0.2337,0.32949 0,0.008 -0.0444,0.0435 -0.0988,0.0783 -0.38171,0.24426 -0.81281,0.61078 -1.15968,0.98598 -0.86226,0.93268 -1.36996,2.01923 -1.50219,3.21493 -0.0794,0.71739 -0.0147,1.54016 0.17528,2.23284 0.38552,1.40518 1.31436,2.59433 2.64414,3.38517 0.1575,0.0937 0.41705,0.22955 0.54739,0.28658 0.0632,0.0277 0.0774,0.0383 0.0774,0.058 0,0.0286 -0.10001,0.32721 -0.19216,0.57414 -0.33205,0.88926 -0.76504,1.77936 -1.24437,2.55807 -0.23285,0.37826 -0.73888,1.11441 -1.07198,1.55939 -1.04105,1.39078 -1.93219,2.03401 -2.99744,2.1636 -0.13644,0.0166 -0.54002,0.0167 -0.6996,0 -0.48124,-0.0499 -0.82544,-0.15155 -1.51134,-0.44649 -0.91986,-0.39553 -1.3214,-0.50825 -1.99198,-0.55922 -0.20713,-0.0158 -0.70773,-0.007 -0.9115,0.0159 -0.61735,0.0693 -1.00598,0.18479 -1.90823,0.56694 -0.74653,0.31621 -1.14619,0.42618 -1.68758,0.46432 -0.68097,0.0451 -1.4063,-0.2668 -1.86914,-0.59478 z m 5.57078,-19.40864 c -0.10187,-0.008 -0.0947,0.006 -0.11352,-0.22862 -0.0155,-0.19365 -0.008,-0.54823 0.0162,-0.75001 0.0684,-0.57409 0.23882,-1.13671 0.51821,-1.71019 0.43138,-0.88549 0.99853,-1.58496 1.73285,-2.13714 0.83155,-0.6253 1.79218,-1.03274 2.70054,-1.1454 0.21103,-0.0261 0.25149,-0.0272 0.25938,-0.006 0.0166,0.0434 0.0309,0.39659 0.025,0.62024 -0.0323,1.22655 -0.51754,2.46242 -1.38397,3.52461 -0.13624,0.16701 -0.48287,0.51679 -0.65259,0.65852 -0.78843,0.65835 -1.66827,1.05951 -2.53671,1.15658 -0.16464,0.0185 -0.44656,0.0274 -0.56536,0.0181 z"
       style="fill:#b0b0b0;fill-opacity:1" />
    <g
       transform="matrix(0.76305245,0,0,0.76305245,-544.16867,88.567823)"
       id="g3769"
       style="fill:#1570a6;fill-opacity:1"
       inkscape:export-filename="C:\Users\katha\Documents\Scitivity\Webseiten\Lunchinator\win-iconH.png"
       inkscape:export-xdpi="89.452972"
       inkscape:export-ydpi="89.452972">
      <rect
         style="fill:#1570a6;fill-opacity:1;stroke:none"
         id="rect3771"
         width="16.042484"
         height="16.042484"
         x="451.70865"
         y="657.78326"
         transform="translate(0,308.2677)" />
      <rect
         y="966.05096"
         x="469.73987"
         height="16.042484"
         width="16.042484"
         id="rect3773"
         style="fill:#1570a6;fill-opacity:1;stroke:none" />
      <rect
         style="fill:#1570a6;fill-opacity:1;stroke:none"
         id="rect3775"
         width="16.042484"
         height="16.042484"
         x="469.73987"
         y="984.08215" />
      <rect
         y="984.08215"
         x="451.70865"
         height="16.042484"
         width="16.042484"
         id="rect3777"
         style="fill:#1570a6;fill-opacity:1;stroke:none" />
    </g>
    <path
       inkscape:connector-curvature="0"
       id="path3779"
       d="m -187.3225,757.12602 c -0.95046,0 -3.67182,0.28038 -3.91967,3.53733 -0.16391,2.15377 0.54316,4.43987 -0.78549,6.1175 -2.30076,2.90506 -3.19459,4.96062 -3.4619,6.14871 -0.16495,0.73308 -0.0312,1.84149 -0.0312,1.84149 -0.44553,0.29701 -0.47371,0.82962 -0.88953,1.18604 -0.41584,0.35643 -1.40478,0.2345 -1.84149,1.01178 -0.29806,0.53051 0.10743,1.42476 0.0598,1.90132 -0.0594,0.59404 -0.58954,1.83535 -0.11964,2.37469 0.488,0.56015 1.87166,0.11946 3.38647,0.83231 0.76958,0.36216 2.37642,1.27576 4.09914,0.5332 1.1469,-0.49435 0.77299,-2.2859 0.47598,-2.79085 -0.15358,-0.26107 -0.50684,-0.71257 -1.01178,-1.069 1.00145,0.23438 1.41438,-0.58062 0.83231,-1.89871 -0.3264,-0.73912 -2.45012,-2.3929 -2.45012,-2.3929 -0.24748,-1.26225 0.55026,-3.67458 1.63861,-5.45945 0.47525,-1.00988 1.08682,-3.14029 0.92855,-3.61276 0,0 0.3724,0.20648 0.5358,0.34073 0.28614,0.2351 0.77272,0.78549 1.54498,0.78549 0.77225,0 1.2848,-0.57305 1.64122,-0.69185 0.35643,-0.11881 1.06806,-0.41427 1.30569,-0.83752 0,0 0.50064,1.53053 0.67886,2.06518 0.1782,0.53464 1.54187,3.44308 1.83889,4.09653 0.29702,0.65345 0.71526,2.32008 0.71526,2.32008 0,0 -0.12183,0.12447 -0.41875,0.11704 -0.59404,-0.0149 -0.44217,0.96496 -0.44217,0.96496 0,0 -0.25346,0.11737 -0.78809,0.5332 -0.53465,0.41584 -0.3565,2.74989 -0.56442,3.58155 -0.2255,0.90206 -1.35145,3.32587 0.46038,4.23179 1.59222,0.79611 3.11746,-0.62471 4.06792,-1.70884 0.49845,-0.56854 2.41344,-1.07761 2.6608,-1.70624 0.23136,-0.58796 0.0592,-1.24752 -0.77249,-1.94554 -0.29135,-0.24452 -0.13391,-0.90588 -0.31211,-1.38111 -0.17822,-0.47524 -0.74388,-0.90514 -0.74388,-0.90514 0,0 0.3076,-1.33933 0.0598,-2.94171 -0.44553,-2.8811 -3.53371,-5.67454 -4.12775,-7.04084 -0.59404,-1.36631 0.0301,-3.14705 -0.50459,-5.34501 -0.53463,-2.19796 -2.2306,-2.79345 -3.74541,-2.79345 z m 0.61643,3.59975 c 0.62368,-0.0206 1.26684,0.4313 1.3265,1.3291 0.0805,1.21158 -0.34073,1.50337 -0.34073,1.50337 -0.31327,-0.0389 -0.53593,-0.10282 -0.72307,-0.18207 0.1631,-0.16447 0.2705,-0.45455 0.2705,-0.7855 0,-0.5129 -0.25904,-0.92855 -0.58001,-0.92855 -0.32098,0 -0.58262,0.41565 -0.58262,0.92855 0,0.11471 0.0152,0.22369 0.039,0.32512 -0.15821,-0.0744 -0.34542,-0.14512 -0.58522,-0.20807 0,0 -0.17846,-0.82858 0.20548,-1.43054 0.22767,-0.35697 0.59597,-0.53907 0.97016,-0.55141 z m -3.13157,0.23929 c 0.30994,-0.007 0.61302,0.161 0.76989,0.48378 0.20164,0.41494 0.18727,1.26148 0.18727,1.26148 -0.22069,0.0691 -0.39195,0.15794 -0.5332,0.25229 0.0339,-0.10803 0.0537,-0.23242 0.0494,-0.36414 -0.0131,-0.40366 -0.22569,-0.72387 -0.47338,-0.71526 -0.2477,0.009 -0.43711,0.34281 -0.42396,0.74648 0.012,0.37013 0.19039,0.6694 0.41095,0.71006 -0.13045,0.13257 -0.24219,0.24733 -0.39014,0.30172 0,0 -0.60859,-0.44038 -0.55661,-1.47996 0.0403,-0.80625 0.50674,-1.18688 0.95976,-1.19645 z m 5.18895,18.38111 c -0.92169,0.70581 -3.36771,1.861 -5.56869,0.42656 0.27891,0.77731 0.3722,1.27265 0.20807,1.99755 1.84793,-0.56653 2.98365,-0.47858 5.03549,-0.10925 -0.18263,-0.82482 0.0542,-1.5298 0.32513,-2.31486 z"
       style="fill:#dd4814;fill-opacity:1;stroke:none" />
    <g
       transform="translate(-639.34534,18.620981)"
       id="g3787"
       inkscape:export-filename="C:\Users\katha\Documents\Scitivity\Webseiten\Lunchinator\img\lunchinator-circle.png"
       inkscape:export-xdpi="46.32003"
       inkscape:export-ydpi="46.32003">
      <path
         clip-rule="evenodd"
         d="m 545.08157,349.06406 c -2.71432,2.71442 -2.08168,6.24435 -2.98976,9.68315 l -15.2217,-15.36866 c -0.33044,-0.34922 -0.80734,-0.56864 -1.32996,-0.56864 -1.00879,0 -1.8339,0.81582 -1.8339,1.8339 v 0.62335 c 0,5.52977 2.38428,15.7636 9.83041,23.96126 l -8.7665,8.75802 c -1.42171,1.42029 -1.42171,3.7315 0,5.1527 1.42109,1.42231 3.7321,1.42231 5.14421,0 l 8.73875,-8.74814 5.22728,5.22718 4.51138,-4.09898 7.62084,7.61994 c 1.41131,1.42231 3.72262,1.42231 5.14362,0 1.42231,-1.4212 1.42231,-3.73231 0,-5.1527 l -12.05875,-12.16008 c 3.47624,-0.95369 7.03343,-0.28382 9.74835,-2.99914 l 8.19766,-8.19746 c 0.90827,-0.89919 0.90827,-2.36591 0,-3.27317 -0.90807,-0.90878 -2.37469,-0.90878 -3.27398,0 l -7.21581,7.20713 c -0.54098,0.54078 -1.42231,0.54078 -1.96289,0 -0.54987,-0.54079 -0.54987,-1.4211 0,-1.96188 l 7.20774,-7.21693 c 0.90736,-0.89918 0.90736,-2.3659 0,-3.27397 -0.90787,-0.90716 -2.37489,-0.90716 -3.27307,0 l -7.21773,7.20794 c -0.54099,0.54986 -1.4211,0.54986 -1.96219,0 -0.54058,-0.54079 -0.54058,-1.42211 0,-1.96219 l 7.20814,-7.21692 c 0.90777,-0.89899 0.90777,-2.36601 0,-3.27398 -0.90817,-0.90797 -2.37469,-0.90797 -3.27407,0 l -8.19807,8.19827 z"
         id="path3789"
         inkscape:connector-curvature="0"
         style="fill:#df382c;fill-opacity:1;fill-rule:evenodd" />
      <path
         sodipodi:type="arc"
         style="fill:none;stroke:#df382c;stroke-width:7.5849061"
         id="path3791"
         sodipodi:cx="787.85712"
         sodipodi:cy="339.09448"
         sodipodi:rx="143.57143"
         sodipodi:ry="143.57143"
         d="m 931.42854,339.09448 c 0,79.29231 -64.27911,143.57143 -143.57142,143.57143 -79.29231,0 -143.57143,-64.27912 -143.57143,-143.57143 0,-79.29231 64.27912,-143.57142 143.57143,-143.57142 79.29231,0 143.57142,64.27911 143.57142,143.57142 z"
         transform="matrix(0.26368158,0,0,0.26368158,336.45564,273.28745)" />
    </g>
  </g>
</svg>
